<svg width="22" height="22" viewBox="0 0 22 22" fill="none" xmlns="http://www.w3.org/2000/svg">
<path d="M1 21L15 7M15 7H17C18.0609 7 19.0783 6.57857 19.8284 5.82843C20.5786 5.07828 21 4.06087 21 3V1H19C17.9391 1 16.9217 1.42143 16.1716 2.17157C15.4214 2.92172 15 3.93913 15 5V7ZM5.52997 16.47C6.18337 15.814 6.55023 14.9259 6.55023 14C6.55023 13.0741 6.18337 12.186 5.52997 11.53L3.99997 10L2.46997 11.53C1.81657 12.186 1.44971 13.0741 1.44971 14C1.44971 14.9259 1.81657 15.814 2.46997 16.47L3.99997 18M5.52997 16.47L3.99997 18M5.52997 16.47C6.18595 15.8166 7.07413 15.4497 8 15.4497C8.92587 15.4497 9.81402 15.8166 10.47 16.47L12 18L10.47 19.53C9.81402 20.1834 8.92587 20.5502 8 20.5502C7.07413 20.5502 6.18598 20.1834 5.53 19.53L3.99997 18M9.52997 12.47C10.1834 11.814 10.5502 10.9259 10.5502 10C10.5502 9.07413 10.1834 8.18598 9.52997 7.53L7.99997 6L6.46997 7.53C5.81657 8.18598 5.44971 9.07413 5.44971 10C5.44971 10.9259 5.81657 11.814 6.46997 12.47L7.99997 14M9.52997 12.47L7.99997 14M9.52997 12.47C10.1859 11.8166 11.0741 11.4497 12 11.4497C12.9259 11.4497 13.814 11.8166 14.47 12.47L16 14L14.47 15.53C13.814 16.1834 12.9259 16.5502 12 16.5502C11.0741 16.5502 10.186 16.1834 9.53 15.53L7.99997 14M13.53 8.47C14.1834 7.81402 14.5502 6.92587 14.5502 6C14.5502 5.07413 14.1834 4.18598 13.53 3.53L12 2L10.47 3.53C9.81657 4.18598 9.44971 5.07413 9.44971 6C9.44971 6.92587 9.81657 7.81402 10.47 8.47L12 10M13.53 8.47L12 10M13.53 8.47C14.1859 7.8166 15.0741 7.44971 16 7.44971C16.9259 7.44971 17.814 7.81657 18.47 8.46997L20 9.99997L18.47 11.53C17.814 12.1834 16.9259 12.5502 16 12.5502C15.0741 12.5502 14.186 12.1834 13.53 11.53L12 10" stroke="white" stroke-width="2" stroke-linecap="round" stroke-linejoin="round"/>
</svg>
